<?xml version="1.0" encoding="UTF-8"?>
<svg version="1.1" xmlns="http://www.w3.org/2000/svg" width="637" height="258">
<path d="M0 0 C1.32199213 0.39742418 2.64430521 0.79378214 3.96691895 1.18913269 C6.71627295 2.01448461 9.46224786 2.84999863 12.20605469 3.69360352 C15.71923491 4.77323531 19.23867 5.83050909 22.76070404 6.88084888 C25.48242817 7.69444108 28.20115838 8.51767193 30.91902161 9.3440609 C32.84486646 9.92835756 34.77270212 10.50607945 36.70056152 11.08369446 C37.86607544 11.4438414 39.03158936 11.80398834 40.23242188 12.17504883 C41.25847534 12.48815506 42.28452881 12.80126129 43.3416748 13.12385559 C45.9247547 14.17550255 47.26273728 14.93365642 48.90625 17.16796875 C49.16778069 19.75571646 49.25583438 22.09696528 49.19921875 24.6796875 C49.19497391 25.40791214 49.19072906 26.13613678 49.18635559 26.88642883 C49.16957733 29.20982002 49.13192855 31.53234025 49.09375 33.85546875 C49.07870197 35.43162809 49.06501377 37.00780104 49.05273438 38.58398438 C49.01967685 42.44564752 48.96790194 46.30666053 48.90625 50.16796875 C50.88625 50.16796875 52.86625 50.16796875 54.90625 50.16796875 C54.50236619 55.50130618 51.47989729 58.8889907 48.34375 62.98046875 C47.82361328 63.67333984 47.30347656 64.36621094 46.76757812 65.08007812 C45.48825846 66.78192538 44.19828986 68.47575839 42.90625 70.16796875 C39.27818026 66.66901182 36.10101516 63.05882547 33.03125 59.04296875 C32.22945313 58.00914063 31.42765625 56.9753125 30.6015625 55.91015625 C30.04210937 55.00523438 29.48265625 54.1003125 28.90625 53.16796875 C29.23625 52.17796875 29.56625 51.18796875 29.90625 50.16796875 C31.55625 50.16796875 33.20625 50.16796875 34.90625 50.16796875 C34.90625 42.24796875 34.90625 34.32796875 34.90625 26.16796875 C29.95625 25.17796875 29.95625 25.17796875 24.90625 24.16796875 C13.02625 20.53796875 1.14625 16.90796875 -11.09375 13.16796875 C-11.09375 45.17796875 -11.09375 77.18796875 -11.09375 110.16796875 C3.09625 105.87796875 17.28625 101.58796875 31.90625 97.16796875 C32.89625 97.16796875 33.88625 97.16796875 34.90625 97.16796875 C34.87144531 95.96398437 34.83664063 94.76 34.80078125 93.51953125 C34.7726472 91.94402433 34.74534663 90.36850237 34.71875 88.79296875 C34.69361328 87.99890625 34.66847656 87.20484375 34.64257812 86.38671875 C34.61620595 84.31210727 34.75138538 82.2369601 34.90625 80.16796875 C38.064026 78.06278475 38.86022134 77.91507531 42.46875 77.98046875 C43.64630859 77.99013672 43.64630859 77.99013672 44.84765625 78 C46.90625 78.16796875 46.90625 78.16796875 48.90625 79.16796875 C48.99315253 83.60534587 49.04660926 88.04250509 49.09375 92.48046875 C49.11888672 93.74310547 49.14402344 95.00574219 49.16992188 96.30664062 C49.18442383 98.11938477 49.18442383 98.11938477 49.19921875 99.96875 C49.22278442 101.64191284 49.22278442 101.64191284 49.24682617 103.34887695 C48.90625 106.16796875 48.90625 106.16796875 47.73681641 107.93383789 C45.35247138 109.5413151 43.07987818 110.28228975 40.32421875 111.11328125 C39.17848389 111.46390625 38.03274902 111.81453125 36.85229492 112.17578125 C35.6119751 112.54445313 34.37165527 112.913125 33.09375 113.29296875 C31.8035702 113.68285949 30.51361569 114.07349647 29.22387695 114.46484375 C26.51405029 115.28541671 23.80254508 116.10011634 21.08984375 116.91113281 C17.60659716 117.95435621 14.1296901 119.0170653 10.65483093 120.08786011 C7.95355256 120.91983185 5.25048356 121.74587495 2.54702759 122.57073975 C0.63280517 123.15602734 -1.27992861 123.74617662 -3.19262695 124.33642578 C-4.96319458 124.87178955 -4.96319458 124.87178955 -6.76953125 125.41796875 C-7.79989502 125.7325 -8.83025879 126.04703125 -9.8918457 126.37109375 C-17.33672733 128.22394115 -22.4166646 128.28579962 -29.69140625 126.1484375 C-30.50480972 125.92173874 -31.3182132 125.69503998 -32.15626526 125.46147156 C-34.8077444 124.7153307 -37.45104029 123.94456364 -40.09375 123.16796875 C-40.99647644 122.90534241 -41.89920288 122.64271606 -42.82928467 122.37213135 C-48.4563624 120.73112266 -54.07075062 119.05075207 -59.67895508 117.34643555 C-62.57931312 116.46587662 -65.48192404 115.59303578 -68.38476562 114.72070312 C-70.24492857 114.15800446 -72.10495986 113.59487034 -73.96484375 113.03125 C-74.82516708 112.77289871 -75.68549042 112.51454742 -76.57188416 112.24836731 C-77.77078026 111.88239693 -77.77078026 111.88239693 -78.99389648 111.5090332 C-79.69159653 111.29761185 -80.38929657 111.08619049 -81.10813904 110.86836243 C-86.73615029 108.88316816 -86.73615029 108.88316816 -88.09375 106.16796875 C-88.25284531 103.19963988 -88.35317878 100.2520023 -88.41015625 97.28125 C-88.4310733 96.36783844 -88.45199036 95.45442688 -88.47354126 94.51333618 C-88.54024815 91.50247153 -88.59895326 88.49152637 -88.65625 85.48046875 C-88.67676422 84.45752716 -88.69727844 83.43458557 -88.71841431 82.38064575 C-88.99473808 68.46954286 -89.21375574 54.55704106 -89.26998901 40.64315796 C-89.27746355 38.95875347 -89.2881165 37.27435993 -89.30203247 35.58999634 C-89.31975244 33.24999762 -89.32405832 30.91036994 -89.32421875 28.5703125 C-89.32832764 27.25538818 -89.33243652 25.94046387 -89.33666992 24.58569336 C-89.10042082 21.26182287 -88.69443752 19.07542021 -87.09375 16.16796875 C-80.75724031 12.22259479 -71.63444764 8.16796875 -64.09375 8.16796875 C-64.09375 19.05796875 -64.09375 29.94796875 -64.09375 41.16796875 C-59.80375 40.17796875 -55.51375 39.18796875 -51.09375 38.16796875 C-50.43375 38.16796875 -49.77375 38.16796875 -49.09375 38.16796875 C-49.42375 26.94796875 -49.75375 15.72796875 -50.09375 4.16796875 C-44.65352847 2.12788567 -39.31795186 0.18209207 -33.78125 -1.51953125 C-33.09869141 -1.74447266 -32.41613281 -1.96941406 -31.71289062 -2.20117188 C-20.57834162 -5.59622899 -10.88531128 -3.35682036 0 0 Z " fill="#092163" transform="translate(137.09375,69.83203125)"/>
<path d="M0 0 C6.27 0 12.54 0 19 0 C20.38158802 3.45397006 21.41400407 6.33250595 22.23681641 9.88208008 C22.56693222 11.29297661 22.56693222 11.29297661 22.90371704 12.7323761 C23.24915054 14.2357679 23.24915054 14.2357679 23.6015625 15.76953125 C23.8428891 16.80567062 24.0842157 17.84181 24.33285522 18.90934753 C25.1006091 22.20955049 25.8628736 25.51099343 26.625 28.8125 C27.14547155 31.05412049 27.66630075 33.29565797 28.1875 35.53710938 C29.46248055 41.02378416 30.73295996 46.5114864 32 52 C33.54901383 49.12632045 34.52194449 46.41115183 35.31274414 43.24731445 C35.54961441 42.30986893 35.78648468 41.3724234 36.03053284 40.40657043 C36.27955856 39.402285 36.52858429 38.39799957 36.78515625 37.36328125 C37.17688271 35.81050728 37.17688271 35.81050728 37.57652283 34.22636414 C38.40957567 30.92282933 39.23658856 27.61782689 40.0625 24.3125 C40.89238225 20.99656771 41.72362118 17.6810053 42.55918884 14.36650085 C43.07902715 12.30405873 43.5955144 10.24076866 44.1084137 8.17658997 C44.34213181 7.24860092 44.57584991 6.32061188 44.81665039 5.36450195 C45.02157608 4.54383743 45.22650177 3.72317291 45.43763733 2.87763977 C46 1 46 1 47 0 C48.34267413 -0.08631874 49.68974322 -0.10706473 51.03515625 -0.09765625 C51.84404297 -0.09443359 52.65292969 -0.09121094 53.48632812 -0.08789062 C54.33646484 -0.07951172 55.18660156 -0.07113281 56.0625 -0.0625 C56.91650391 -0.05798828 57.77050781 -0.05347656 58.65039062 -0.04882812 C60.76695663 -0.03700373 62.88348685 -0.01906769 65 0 C67.25565059 6.42703151 69.07409155 12.89162427 70.69921875 19.50390625 C70.9391304 20.4677977 71.17904205 21.43168915 71.42622375 22.42478943 C72.18333389 25.46987262 72.93549689 28.51615204 73.6875 31.5625 C74.20344803 33.64135748 74.71972096 35.72013435 75.23632812 37.79882812 C76.49464157 42.86495995 77.74890791 47.9320803 79 53 C81.20739236 46.73981543 82.95135718 40.46875337 84.4453125 34.00390625 C84.66065643 33.08915024 84.87600037 32.17439423 85.09786987 31.23191833 C85.77751479 28.34301826 86.45169528 25.45288376 87.125 22.5625 C87.80604521 19.64727085 88.48830978 16.73234521 89.17355347 13.81809998 C89.59795589 12.01244217 90.01985469 10.2061937 90.43899536 8.39930725 C90.62944427 7.58763596 90.81989319 6.77596466 91.01611328 5.93969727 C91.18249298 5.22515884 91.34887268 4.51062042 91.52029419 3.77442932 C92 2 92 2 93 0 C99.6 0 106.2 0 113 0 C105.50023386 28.71242297 97.78752647 57.3643619 90 86 C83.4 86 76.8 86 70 86 C64.8675269 68.11912598 60.46655509 50.05603802 56 32 C55.83935562 32.64701874 55.67871124 33.29403748 55.51319885 33.96066284 C53.84520308 40.6767917 52.17393265 47.39209948 50.50073242 54.10693359 C49.87618816 56.61518655 49.25248761 59.12364974 48.62963867 61.63232422 C47.73576474 65.23199794 46.83888879 68.83091204 45.94140625 72.4296875 C45.6622084 73.55680145 45.38301056 74.68391541 45.09535217 75.84518433 C44.83515793 76.88611237 44.57496368 77.92704041 44.30688477 78.99951172 C44.07816177 79.91884491 43.84943878 80.8381781 43.61378479 81.78536987 C43 84 43 84 42 86 C35.4 86 28.8 86 22 86 C21.58226318 84.43975098 21.16452637 82.87950195 20.73413086 81.27197266 C19.14821092 75.34874728 17.56205221 69.42558586 15.97583008 63.50244141 C15.29606066 60.96405186 14.61639005 58.42563593 13.93676758 55.88720703 C13.27647422 53.42100402 12.61604305 50.9548379 11.95547485 48.4887085 C11.29453089 46.02032376 10.63419245 43.55177681 9.97445679 41.08306885 C8.31502918 34.87939951 6.64188543 28.67999145 4.94189453 22.48730469 C4.61580704 21.29390472 4.28971954 20.10050476 3.95375061 18.87094116 C3.33509765 16.60922887 2.71244446 14.34860576 2.08518982 12.08926392 C1.81030228 11.08189178 1.53541473 10.07451965 1.25219727 9.03662109 C1.00945572 8.15686615 0.76671417 7.27711121 0.51661682 6.37069702 C0 4 0 4 0 0 Z " fill="#092163" transform="translate(316,89)"/>
<path d="M0 0 C7.87875 -0.061875 15.7575 -0.12375 23.875 -0.1875 C26.34210449 -0.21481201 28.80920898 -0.24212402 31.35107422 -0.27026367 C33.33560702 -0.2790364 35.32014528 -0.28667847 37.3046875 -0.29296875 C38.31152588 -0.30831665 39.31836426 -0.32366455 40.35571289 -0.33947754 C48.11090082 -0.34230721 56.03792256 0.46439636 62.4375 5.25 C68.12324936 11.3517798 68.55656436 16.83780979 68.3515625 24.97265625 C67.61571348 31.30913392 63.44824038 34.79888408 59 39 C59.53109375 39.29132813 60.0621875 39.58265625 60.609375 39.8828125 C66.36835599 43.22470293 69.83319546 46.49958638 72 53 C73.21877149 69.8430224 73.21877149 69.8430224 68 76 C58.65404201 85.01512762 47.80235591 86.16383398 35.3515625 86.09765625 C34.45332764 86.09664917 33.55509277 86.09564209 32.62963867 86.09460449 C29.29474601 86.08939768 25.95987164 86.07543651 22.625 86.0625 C15.15875 86.041875 7.6925 86.02125 0 86 C0 57.62 0 29.24 0 0 Z M20 16 C20 21.94 20 27.88 20 34 C23.72960366 34.08101311 27.45744359 34.14051069 31.1875 34.1875 C32.77014648 34.22520508 32.77014648 34.22520508 34.38476562 34.26367188 C35.40634766 34.27333984 36.42792969 34.28300781 37.48046875 34.29296875 C38.41785889 34.3086792 39.35524902 34.32438965 40.32104492 34.34057617 C43.53256353 33.93229508 45.39378631 32.88830698 48 31 C49.57898053 27.84203893 49.81928171 24.39329364 49 21 C47.336385 18.01242435 47.336385 18.01242435 44 16 C39.87909266 15.38640068 35.84196274 15.52967412 31.6875 15.6875 C30.56537109 15.71005859 29.44324219 15.73261719 28.28710938 15.75585938 C25.52416641 15.8146454 22.76191153 15.90432177 20 16 Z M20 48 C20 55.26 20 62.52 20 70 C24.06290008 70.08095816 28.12418567 70.14048645 32.1875 70.1875 C33.33798828 70.21263672 34.48847656 70.23777344 35.67382812 70.26367188 C36.78564453 70.27333984 37.89746094 70.28300781 39.04296875 70.29296875 C40.57473755 70.31653442 40.57473755 70.31653442 42.13745117 70.34057617 C46.43434108 69.82934705 49.04433143 68.08309105 51.875 64.875 C53.49003276 60.74769405 53.31788631 57.2219711 52 53 C49.13714346 50.06373688 46.62787291 48.07327792 42.47802734 47.88647461 C40.92269287 47.89432983 40.92269287 47.89432983 39.3359375 47.90234375 C37.65371094 47.90717773 37.65371094 47.90717773 35.9375 47.91210938 C34.1740625 47.92467773 34.1740625 47.92467773 32.375 47.9375 C31.19164062 47.94201172 30.00828125 47.94652344 28.7890625 47.95117188 C25.85935361 47.96298522 22.92967059 47.9809211 20 48 Z " fill="#092163" transform="translate(513,89)"/>
<path d="M0 0 C9.56432371 8.25255015 14.4790731 17.91380576 16.03125 30.48046875 C16.95002615 45.01681996 14.45568734 56.82038373 5.51953125 68.42578125 C-2.77650553 77.62138828 -13.15043997 81.32715196 -25.25 82.19140625 C-36.66915782 81.97264844 -47.14279516 78.83645727 -55.70703125 71.1953125 C-64.95871736 61.50019046 -68.77098941 49.56504963 -68.7421875 36.359375 C-68.06605986 22.79272685 -64.54974132 11.03944127 -54.375 1.56640625 C-39.1281268 -11.07982972 -15.92714675 -12.22612707 0 0 Z M-42.49609375 14.9296875 C-49.41717244 24.53953057 -50.05948753 35.2749797 -48.3203125 46.78515625 C-46.59782291 53.67511459 -42.99793936 59.37187878 -36.83203125 63.1015625 C-30.28390847 65.91163515 -23.67555312 65.95311485 -17.0625 63.37890625 C-10.82823172 60.25633209 -7.19995214 55.93397963 -4.875 49.37890625 C-2.45677674 39.92192599 -2.37266952 28.83478542 -6.75 19.94140625 C-10.11054215 14.97696898 -13.89135623 10.6773007 -19.75 8.94140625 C-28.45608434 8.04116978 -36.41873196 8.00938068 -42.49609375 14.9296875 Z " fill="#092163" transform="translate(295.75,95.05859375)"/>
<path d="M0 0 C5.46205651 3.57368753 8.87742252 8.47099123 10.6640625 14.75 C10.6640625 17.72 10.6640625 20.69 10.6640625 23.75 C4.3940625 23.42 -1.8759375 23.09 -8.3359375 22.75 C-9.3259375 20.11 -10.3159375 17.47 -11.3359375 14.75 C-15.23102149 11.19859989 -20.20071655 10.59263033 -25.3359375 10.75 C-28.48611766 11.42158749 -31.457299 12.29140415 -34.3359375 13.75 C-35.8142601 16.70664519 -35.39626533 19.49229737 -35.3359375 22.75 C-28.87123925 26.29315192 -22.43432646 28.32605547 -15.3359375 30.25 C-3.98608583 33.3262593 4.56220646 36.13137594 11.9765625 45.75 C15.12564508 51.63685642 14.69865149 59.1500526 12.8984375 65.4140625 C9.44654092 73.60546787 4.85718192 77.68970419 -3.11328125 81.45703125 C-15.73157357 86.51964308 -29.18272835 85.82806582 -41.69921875 80.80078125 C-49.39003993 77.13641635 -54.04702367 72.67927226 -57.3359375 64.75 C-58.29816065 61.11440808 -59.05435897 57.50438045 -59.3359375 53.75 C-58.3359375 52.75 -58.3359375 52.75 -56.57006836 52.63647461 C-55.82120361 52.64171143 -55.07233887 52.64694824 -54.30078125 52.65234375 C-53.49189453 52.65556641 -52.68300781 52.65878906 -51.84960938 52.66210938 C-50.99947266 52.67048828 -50.14933594 52.67886719 -49.2734375 52.6875 C-48.41943359 52.69201172 -47.56542969 52.69652344 -46.68554688 52.70117188 C-44.56898087 52.71299627 -42.45245065 52.73093231 -40.3359375 52.75 C-40.11679687 53.42546875 -39.89765625 54.1009375 -39.671875 54.796875 C-37.61038625 60.59585961 -36.11954339 63.91972478 -30.3359375 66.75 C-24.42198224 68.72131842 -17.04514574 68.78841514 -11.2109375 66.4375 C-8.12588698 64.90810662 -8.12588698 64.90810662 -6.3359375 61.75 C-5.75248274 58.79253508 -5.75248274 58.79253508 -6.3359375 55.75 C-9.99820826 52.13619029 -13.85888157 50.67157137 -18.7109375 49.3125 C-20.13312711 48.88907612 -21.55499463 48.46456909 -22.9765625 48.0390625 C-24.0584082 47.72050293 -24.0584082 47.72050293 -25.16210938 47.39550781 C-28.61012938 46.37163485 -32.03854214 45.29368092 -35.4609375 44.1875 C-36.63914062 43.81496094 -37.81734375 43.44242188 -39.03125 43.05859375 C-45.36023592 40.55243502 -51.28897527 36.53688013 -54.5859375 30.4375 C-56.51414129 23.52810308 -56.93231604 17.51238591 -54.3359375 10.75 C-49.60014103 2.69058733 -43.81534644 -1.72190757 -34.9140625 -4.484375 C-22.83056977 -7.06992585 -10.94854301 -5.85875211 0 0 Z " fill="#092163" transform="translate(489.3359375,92.25)"/>
<path d="M0 0 C16.17 0 32.34 0 49 0 C49 0.66 49 1.32 49 2 C48.06317383 1.99476318 47.12634766 1.98952637 46.16113281 1.98413086 C42.62743493 1.96691138 39.09378275 1.95446456 35.56005859 1.94506836 C34.04149667 1.94009315 32.5229394 1.93331059 31.00439453 1.92456055 C21.94577299 1.8737366 13.0210084 2.03221644 4 3 C2.81917621 6.7394288 2.85497867 10.31257603 2.82641602 14.21533203 C2.819729 14.93446777 2.81304199 15.65360352 2.80615234 16.39453125 C2.79213301 17.95176649 2.78022911 19.50902191 2.77020454 21.06628799 C2.75376618 23.52879496 2.73053046 25.99115105 2.70530701 28.45358276 C2.63458609 35.45319089 2.57426085 42.45285797 2.52319336 49.45263672 C2.49146326 53.73670897 2.45021265 58.02060287 2.40299797 62.3045311 C2.38695283 63.93842248 2.37464291 65.57235486 2.36609077 67.20630264 C2.35398254 69.48553946 2.32985564 71.76435354 2.30297852 74.04345703 C2.28751732 75.99060104 2.28751732 75.99060104 2.27174377 77.9770813 C2 81 2 81 0 83 C0 55.61 0 28.22 0 0 Z " fill="#0F1F51" transform="translate(513,89)"/>
<path d="M0 0 C5.70130488 8.55195731 4.43633094 21.27550758 3 31 C1.07885456 39.45303995 -3.22038512 46.56765654 -9 53 C-10.485 53.495 -10.485 53.495 -12 54 C-10.82744291 50.66272214 -9.81131596 48.22562513 -7 46 C-6.34 46 -5.68 46 -5 46 C-5 45.01 -5 44.02 -5 43 C-4.34 43 -3.68 43 -3 43 C-2.86722656 42.36191406 -2.73445313 41.72382813 -2.59765625 41.06640625 C-2.42105469 40.24011719 -2.24445313 39.41382813 -2.0625 38.5625 C-1.80146484 37.32693359 -1.80146484 37.32693359 -1.53515625 36.06640625 C-1 34 -1 34 0 33 C0.28671723 31.19570877 0.50547961 29.38033998 0.6875 27.5625 C0.79449219 26.57378906 0.90148437 25.58507812 1.01171875 24.56640625 C1.30030452 21.83105742 1.30030452 21.83105742 -1 20 C-0.46428571 16.46428571 -0.46428571 16.46428571 1 15 C0.71917202 12.65976685 0.37531446 10.32694964 0 8 C-0.37531446 5.67305036 -0.71917202 3.34023315 -1 1 C-0.67 0.67 -0.34 0.34 0 0 Z " fill="#0C1F54" transform="translate(308,113)"/>
<path d="M0 0 C-5.61093767 2.32566028 -11.13494428 4.3899847 -17 6 C-18.67195304 6.65329569 -20.33962708 7.31780943 -22 8 C-22.01458252 8.98919434 -22.02916504 9.97838867 -22.04418945 10.99755859 C-22.1020897 14.66182919 -22.17932152 18.32547985 -22.26245117 21.98925781 C-22.2957398 23.57606965 -22.32375947 25.16300103 -22.34643555 26.75 C-22.37991078 29.02916484 -22.4322186 31.30723041 -22.48828125 33.5859375 C-22.49786613 34.65320572 -22.49786613 34.65320572 -22.50764465 35.74203491 C-22.56762695 37.74365234 -22.56762695 37.74365234 -23 41 C-26.42094242 43.28062828 -27.68187222 43.21925007 -31.6875 43.125 C-32.68136719 43.10695312 -33.67523438 43.08890625 -34.69921875 43.0703125 C-35.83810547 43.03550781 -35.83810547 43.03550781 -37 43 C-37 42.67 -37 42.34 -37 42 C-32.71 41.34 -28.42 40.68 -24 40 C-24.33 28.78 -24.66 17.56 -25 6 C-19.86684477 4.07506679 -14.92271106 2.28337329 -9.6875 0.75 C-8.49511719 0.39421875 -7.30273438 0.0384375 -6.07421875 -0.328125 C-3 -1 -3 -1 0 0 Z " fill="#0F1F4E" transform="translate(112,68)"/>
<path d="M0 0 C0.33 0 0.66 0 1 0 C1.08692074 4.27070558 1.14036515 8.54118458 1.1875 12.8125 C1.21263672 14.02744141 1.23777344 15.24238281 1.26367188 16.49414062 C1.27333984 17.65751953 1.28300781 18.82089844 1.29296875 20.01953125 C1.3086792 21.09307861 1.32438965 22.16662598 1.34057617 23.27270508 C1 26 1 26 -0.24682617 27.7734375 C-2.24597817 29.17209223 -4.01297451 29.88388552 -6.34375 30.60546875 C-7.59478516 30.99702148 -7.59478516 30.99702148 -8.87109375 31.39648438 C-10.17240234 31.78803711 -10.17240234 31.78803711 -11.5 32.1875 C-12.36753906 32.46013672 -13.23507813 32.73277344 -14.12890625 33.01367188 C-20.57078242 35 -20.57078242 35 -24 35 C-24 34.01 -24 33.02 -24 32 C-22.68 32.33 -21.36 32.66 -20 33 C-20 32.34 -20 31.68 -20 31 C-19.38253906 30.87882812 -18.76507813 30.75765625 -18.12890625 30.6328125 C-17.28199219 30.46523437 -16.43507812 30.29765625 -15.5625 30.125 C-14.32693359 29.88136719 -14.32693359 29.88136719 -13.06640625 29.6328125 C-9.03459909 28.80077077 -5.01873371 27.89305194 -1 27 C-0.67 18.09 -0.34 9.18 0 0 Z " fill="#0F1F53" transform="translate(185,150)"/>
<path d="M0 0 C2.97 0 5.94 0 9 0 C9.33 0.66 9.66 1.32 10 2 C9.24074219 2.18175781 8.48148437 2.36351563 7.69921875 2.55078125 C6.20841797 2.92783203 6.20841797 2.92783203 4.6875 3.3125 C3.70136719 3.55613281 2.71523438 3.79976563 1.69921875 4.05078125 C-1.04711423 5.01656839 -2.32426065 5.64490687 -4 8 C-4.2503577 11.62535976 -4.2503577 11.62535976 -4 15 C-3.46890625 15.26554687 -2.9378125 15.53109375 -2.390625 15.8046875 C1.07291667 17.53645833 4.53645833 19.26822917 8 21 C4.04 21.495 4.04 21.495 0 22 C-0.66 21.01 -1.32 20.02 -2 19 C-3.32 19 -4.64 19 -6 19 C-6.91297308 14.02936879 -6.91297308 9.97063121 -6 5 C-5.195625 4.731875 -4.39125 4.46375 -3.5625 4.1875 C-2.716875 3.795625 -1.87125 3.40375 -1 3 C-0.67 2.01 -0.34 1.02 0 0 Z " fill="#0F1F51" transform="translate(458,100)"/>
<path d="M0 0 C2 3 2 3 2 12 C-4.27 11.67 -10.54 11.34 -17 11 C-17.99 8.36 -18.98 5.72 -20 3 C-20.33 2.34 -20.66 1.68 -21 1 C-17.63820226 2.44077046 -15.40843732 4.24750021 -13 7 C-13 7.66 -13 8.32 -13 9 C-6.565 8.505 -6.565 8.505 0 8 C-0.33 6.35 -0.66 4.7 -1 3 C-0.67 2.01 -0.34 1.02 0 0 Z " fill="#0C2055" transform="translate(498,104)"/>
<path d="M0 0 C1 3 1 3 -1 11 C-7.6 11 -14.2 11 -21 11 C-21.33 9.02 -21.66 7.04 -22 5 C-21.01 5 -20.02 5 -19 5 C-18.67 5.99 -18.34 6.98 -18 8 C-13.05 8 -8.1 8 -3 8 C-2.01 5.36 -1.02 2.72 0 0 Z " fill="#0F2051" transform="translate(407,164)"/>
<path d="M0 0 C5.59980068 1.86660023 8.07394981 5.06240032 10.8671875 10.02734375 C12.8506018 15.23209644 12.79796489 20.52933688 12 26 C11.34 26.99 10.68 27.98 10 29 C9.95101563 28.00097656 9.90203125 27.00195312 9.8515625 25.97265625 C9.77679688 24.68230469 9.70203125 23.39195312 9.625 22.0625 C9.55539062 20.77472656 9.48578125 19.48695313 9.4140625 18.16015625 C9.27742188 17.11730469 9.14078125 16.07445312 9 15 C8.34 14.67 7.68 14.34 7 14 C7.144375 13.13375 7.28875 12.2675 7.4375 11.375 C6.93273599 7.48110621 6.40807141 7.12560763 3.5 4.75 C2.8503125 4.27046875 2.200625 3.7909375 1.53125 3.296875 C1.0259375 2.86890625 0.520625 2.4409375 0 2 C0 1.34 0 0.68 0 0 Z " fill="#0F2053" transform="translate(491,129)"/>
<path d="M0 0 C1.9453125 1.375 1.9453125 1.375 4.6953125 3.6875 C3.7053125 4.0175 2.7153125 4.3475 1.6953125 4.6875 C0.9528125 4.089375 0.2103125 3.49125 -0.5546875 2.875 C-6.72386968 -2.03230401 -14.17759215 -1.7012602 -21.7421875 -1.9375 C-22.75990234 -1.97617188 -23.77761719 -2.01484375 -24.82617188 -2.0546875 C-27.31883686 -2.14830872 -29.811507 -2.23403993 -32.3046875 -2.3125 C-32.3046875 -2.6425 -32.3046875 -2.9725 -32.3046875 -3.3125 C-21.91320695 -5.68550845 -9.44347867 -5.37798107 0 0 Z " fill="#0F1F50" transform="translate(290.3046875,91.3125)"/>
<path d="M0 0 C0.74886475 0.00523682 1.49772949 0.01047363 2.26928711 0.01586914 C3.07817383 0.0190918 3.88706055 0.02231445 4.72045898 0.02563477 C5.5705957 0.03401367 6.42073242 0.04239258 7.29663086 0.05102539 C8.15063477 0.05553711 9.00463867 0.06004883 9.88452148 0.06469727 C12.00108749 0.07652166 14.11761771 0.0944577 16.23413086 0.11352539 C16.23413086 0.44352539 16.23413086 0.77352539 16.23413086 1.11352539 C11.28413086 1.44352539 6.33413086 1.77352539 1.23413086 2.11352539 C0.45903971 8.61784768 0.45903971 8.61784768 2.73413086 10.80102539 C3.47663086 11.45071289 3.47663086 11.45071289 4.23413086 12.11352539 C4.23413086 16.11352539 4.23413086 16.11352539 3.23413086 19.11352539 C-0.56331075 13.41736298 -2.16253989 7.9512569 -2.76586914 1.11352539 C-1.76586914 0.11352539 -1.76586914 0.11352539 0 0 Z " fill="#091550" transform="translate(432.765869140625,144.886474609375)"/>
<path d="M0 0 C3.16357014 2.88847708 3.92418733 4.95229373 4.23828125 9.29296875 C4.38271279 16.87182401 4.26293194 22.47238546 0 29 C-1.32 28.34 -2.64 27.68 -4 27 C-2.36587557 25.29159719 -1.13093906 24.06546953 1 23 C1.02911321 19.9166866 1.04683682 16.83340875 1.0625 13.75 C1.07087891 12.87730469 1.07925781 12.00460938 1.08789062 11.10546875 C1.09272461 9.83896484 1.09272461 9.83896484 1.09765625 8.546875 C1.10551147 7.38430176 1.10551147 7.38430176 1.11352539 6.19824219 C1.00036998 4.00716402 0.60552448 2.10362139 0 0 Z " fill="#101F52" transform="translate(581,136)"/>
<path d="M0 0 C0.33 0 0.66 0 1 0 C1.03738281 0.89460938 1.07476562 1.78921875 1.11328125 2.7109375 C1.73037232 14.06057318 2.6608038 22.82340651 11 31 C11.66 31.66 12.32 32.32 13 33 C10.03217947 32.36403846 7.55355125 31.66053238 5 30 C-1.37199064 20.11983473 -1.61300995 11.29106965 0 0 Z " fill="#101F51" transform="translate(246,125)"/>
<path d="M0 0 C0.99 0.495 0.99 0.495 2 1 C2.2734375 3.5546875 2.2734375 3.5546875 2.375 6.875 C2.76974335 13.37749948 4.04610782 19.15909622 7 25 C7.66 25.33 8.32 25.66 9 26 C9.73075648 28.3140622 10.40138258 30.64828869 11 33 C2.72643746 25.87554337 1.00489002 16.53812296 0 6 C-0.02761532 4.00019066 -0.03597619 1.9996764 0 0 Z " fill="#0F204F" transform="translate(227,129)"/>
<path d="M0 0 C0.86671772 3.16337376 0.99470854 5.4844244 0.5625 8.75 C0.46066406 9.54921875 0.35882813 10.3484375 0.25390625 11.171875 C0.12822266 12.07679687 0.12822266 12.07679687 0 13 C-0.66 13 -1.32 13 -2 13 C-2.04898437 13.556875 -2.09796875 14.11375 -2.1484375 14.6875 C-2.66555577 19.96567265 -3.60462463 24.88362365 -5 30 C-5.66 30 -6.32 30 -7 30 C-5.46486464 19.80395169 -2.69736887 9.93496549 0 0 Z " fill="#112254" transform="translate(357,110)"/>
<path d="M0 0 C-1 2 -1 2 -4 4 C-4.804375 4.5775 -5.60875 5.155 -6.4375 5.75 C-7.7059375 6.36875 -7.7059375 6.36875 -9 7 C-11.3125 6.1875 -11.3125 6.1875 -13 5 C-13.103125 5.78375 -13.20625 6.5675 -13.3125 7.375 C-14 10 -14 10 -17 12 C-16.04247991 5.7761194 -16.04247991 5.7761194 -13.2265625 3.6796875 C-8.89532054 1.50601589 -4.88151004 0 0 0 Z " fill="#101F5D" transform="translate(65,81)"/>
<path d="M0 0 C0 0.99 0 1.98 0 3 C-3.09291432 4.7966915 -5.35190409 5.25612772 -8.9140625 5.265625 C-10.30238281 5.26949219 -10.30238281 5.26949219 -11.71875 5.2734375 C-12.6778125 5.26570313 -13.636875 5.25796875 -14.625 5.25 C-15.59179688 5.25773437 -16.55859375 5.26546875 -17.5546875 5.2734375 C-18.47765625 5.27085938 -19.400625 5.26828125 -20.3515625 5.265625 C-21.19541504 5.26336914 -22.03926758 5.26111328 -22.90869141 5.25878906 C-25 5 -25 5 -27 3 C-25.98631348 2.970271 -25.98631348 2.970271 -24.95214844 2.93994141 C-21.88437956 2.84456762 -18.81728002 2.73493835 -15.75 2.625 C-14.15478516 2.57859375 -14.15478516 2.57859375 -12.52734375 2.53125 C-10.99013672 2.47324219 -10.99013672 2.47324219 -9.421875 2.4140625 C-8.47924805 2.3826416 -7.53662109 2.3512207 -6.56542969 2.31884766 C-3.95164571 1.99399023 -2.25646966 1.32323838 0 0 Z " fill="#101F51" transform="translate(560,120)"/>
<path d="M0 0 C0.93423645 3.01031744 1.04449911 3.86650268 0 7 C-3.26210347 9.27854993 -6.18163424 9.23351339 -10.078125 9.1953125 C-11.81835938 9.18564453 -11.81835938 9.18564453 -13.59375 9.17578125 C-14.8003125 9.15902344 -16.006875 9.14226562 -17.25 9.125 C-19.08304688 9.11146484 -19.08304688 9.11146484 -20.953125 9.09765625 C-23.96894782 9.07409513 -26.98437492 9.04119706 -30 9 C-30 8.67 -30 8.34 -30 8 C-29.3294458 7.98541748 -28.6588916 7.97083496 -27.96801758 7.95581055 C-24.91561178 7.881117 -21.86427415 7.78452701 -18.8125 7.6875 C-17.75740234 7.66494141 -16.70230469 7.64238281 -15.61523438 7.61914062 C-14.59365234 7.58369141 -13.57207031 7.54824219 -12.51953125 7.51171875 C-11.58214111 7.48553467 -10.64475098 7.45935059 -9.67895508 7.43237305 C-6.5159435 6.92187514 -4.59118495 5.85876445 -2 4 C-0.67206394 1.93299345 -0.67206394 1.93299345 0 0 Z " fill="#101C4D" transform="translate(565,151)"/>
<path d="M0 0 C2 1 2 1 4 5 C9.61 5 15.22 5 21 5 C21 5.66 21 6.32 21 7 C14.4 7 7.8 7 1 7 C0.67 4.69 0.34 2.38 0 0 Z " fill="#0F1E4E" transform="translate(337,168)"/>
<path d="M0 0 C0.99 0.495 0.99 0.495 2 1 C1.95875 2.11375 1.9175 3.2275 1.875 4.375 C1.86514484 9.89388925 2.50825805 16.01651611 5 21 C3.0625 20.625 3.0625 20.625 1 20 C-0.1482685 17.703463 -0.11561175 16.41686833 -0.09765625 13.8671875 C-0.09443359 13.06152344 -0.09121094 12.25585938 -0.08789062 11.42578125 C-0.07951172 10.58402344 -0.07113281 9.74226562 -0.0625 8.875 C-0.05798828 8.02550781 -0.05347656 7.17601562 -0.04882812 6.30078125 C-0.03702874 4.20049091 -0.01909306 2.1002367 0 0 Z " fill="#0E2057" transform="translate(49,158)"/>
<path d="M0 0 C0.66 0.33 1.32 0.66 2 1 C2.05454409 3.35448675 2.0939279 5.70767875 2.125 8.0625 C2.14820313 9.37347656 2.17140625 10.68445313 2.1953125 12.03515625 C1.99417522 16.11824299 1.27165462 19.14999053 0 23 C-0.99 23 -1.98 23 -3 23 C-2.690625 21.80375 -2.38125 20.6075 -2.0625 19.375 C-0.62245192 12.99180815 -0.35230768 6.51769209 0 0 Z " fill="#0F2054" transform="translate(292,125)"/>
<path d="M0 0 C0.74886475 0.00523682 1.49772949 0.01047363 2.26928711 0.01586914 C3.07817383 0.0190918 3.88706055 0.02231445 4.72045898 0.02563477 C5.5705957 0.03401367 6.42073242 0.04239258 7.29663086 0.05102539 C8.15063477 0.05553711 9.00463867 0.06004883 9.88452148 0.06469727 C12.00108749 0.07652166 14.11761771 0.0944577 16.23413086 0.11352539 C16.23413086 0.44352539 16.23413086 0.77352539 16.23413086 1.11352539 C11.28413086 1.11352539 6.33413086 1.11352539 1.23413086 1.11352539 C0.57413086 3.42352539 -0.08586914 5.73352539 -0.76586914 8.11352539 C-1.75586914 8.44352539 -2.74586914 8.77352539 -3.76586914 9.11352539 C-2.77306372 0.1782766 -2.77306372 0.1782766 0 0 Z " fill="#132151" transform="translate(364.765869140625,88.886474609375)"/>
<path d="M0 0 C1.34109121 0.9895717 2.67283871 1.99182309 4 3 C6.18512132 3.75804826 8.39708056 4.4413983 10.625 5.0625 C16.78627145 6.78627145 16.78627145 6.78627145 19 9 C11.11583017 7.64741104 3.60646666 5.45600648 -4 3 C-3 1 -3 1 0 0 Z " fill="#0D1D53" transform="translate(133,81)"/>
<path d="M0 0 C1.60568666 0.28317926 3.20952047 0.57687791 4.8125 0.875 C6.15248047 1.11863281 6.15248047 1.11863281 7.51953125 1.3671875 C10 2 10 2 13 4 C12.01 4.495 12.01 4.495 11 5 C10.67 5.66 10.34 6.32 10 7 C7.35139573 7.59355614 4.70802678 7.74209269 2 8 C2 7.01 2 6.02 2 5 C2.66 4.67 3.32 4.34 4 4 C4 4.66 4 5.32 4 6 C4.99 5.34 5.98 4.68 7 4 C4.69 3.01 2.38 2.02 0 1 C0 0.67 0 0.34 0 0 Z " fill="#0A1D56" transform="translate(137,71)"/>
<path d="M0 0 C0.66 0 1.32 0 2 0 C2.12117188 0.63808594 2.24234375 1.27617187 2.3671875 1.93359375 C2.53476562 2.75988281 2.70234375 3.58617187 2.875 4.4375 C3.03742188 5.26121094 3.19984375 6.08492187 3.3671875 6.93359375 C3.57601563 7.61550781 3.78484375 8.29742187 4 9 C4.66 9.33 5.32 9.66 6 10 C5.34 10 4.68 10 4 10 C4.33 12.97 4.66 15.94 5 19 C3.25785842 15.51571684 2.29337157 12.68055988 1.375 8.9375 C1.11460937 7.89464844 0.85421875 6.85179687 0.5859375 5.77734375 C0 3 0 3 0 0 Z " fill="#0E2153" transform="translate(377,138)"/>
<path d="M0 0 C6.27 0 12.54 0 19 0 C19 0.33 19 0.66 19 1 C11.08 1.495 11.08 1.495 3 2 C3.33 4.64 3.66 7.28 4 10 C3.01 10.495 3.01 10.495 2 11 C0.80712589 7.12315913 0 4.08378077 0 0 Z " fill="#13214D" transform="translate(316,89)"/>
<path d="M0 0 C-3.10048188 1.7289746 -5.95224674 2.5445892 -9.4375 3.1875 C-10.36433594 3.36667969 -11.29117188 3.54585937 -12.24609375 3.73046875 C-15.08629724 4.00844611 -17.24917005 3.70393289 -20 3 C-20 2.67 -20 2.34 -20 2 C-18.75283203 1.80083984 -18.75283203 1.80083984 -17.48046875 1.59765625 C-16.39378906 1.42105469 -15.30710937 1.24445313 -14.1875 1.0625 C-13.10855469 0.88847656 -12.02960938 0.71445313 -10.91796875 0.53515625 C-3.43894166 -0.83649932 -3.43894166 -0.83649932 0 0 Z " fill="#0E1A4C" transform="translate(131,194)"/>
<path d="M0 0 C8.91 0 17.82 0 27 0 C27.33 1.32 27.66 2.64 28 4 C27.18450684 3.51781006 27.18450684 3.51781006 26.35253906 3.02587891 C23.55957488 1.80794247 21.40069472 1.6830009 18.359375 1.5859375 C16.75449219 1.52792969 16.75449219 1.52792969 15.1171875 1.46875 C13.45042969 1.42234375 13.45042969 1.42234375 11.75 1.375 C10.62335937 1.33632812 9.49671875 1.29765625 8.3359375 1.2578125 C5.55745452 1.16362664 2.77897666 1.07800414 0 1 C0 0.67 0 0.34 0 0 Z " fill="#050F4D" transform="translate(533,104)"/>
<path d="M0 0 C1.63129887 4.06285757 0.29968777 7.20102184 -0.9375 11.25 C-1.31777344 12.51328125 -1.69804687 13.7765625 -2.08984375 15.078125 C-2.39019531 16.04234375 -2.69054687 17.0065625 -3 18 C-3.33 18 -3.66 18 -4 18 C-4 15.03 -4 12.06 -4 9 C-3.34 9 -2.68 9 -2 9 C-2.04125 8.071875 -2.0825 7.14375 -2.125 6.1875 C-2 3 -2 3 0 0 Z " fill="#0F2054" transform="translate(424,101)"/>
<path d="M0 0 C2.80163026 4.2024454 2.14489712 7.00104935 2 12 C-3.61 11.67 -9.22 11.34 -15 11 C-15 10.67 -15 10.34 -15 10 C-10.05 10 -5.1 10 0 10 C0.372678 5.372678 0.372678 5.372678 -1 3 C-0.67 2.01 -0.34 1.02 0 0 Z " fill="#14214C" transform="translate(498,104)"/>
<path d="M0 0 C0.70125 0.268125 1.4025 0.53625 2.125 0.8125 C1.125 2.8125 1.125 2.8125 -1.8125 3.875 C-2.823125 4.184375 -3.83375 4.49375 -4.875 4.8125 C-5.865 5.3075 -5.865 5.3075 -6.875 5.8125 C-7.205 6.8025 -7.535 7.7925 -7.875 8.8125 C-8.865 8.8125 -9.855 8.8125 -10.875 8.8125 C-9.09681934 4.01141223 -5.34841722 -0.34880982 0 0 Z " fill="#0C2152" transform="translate(448.875,91.1875)"/>
<path d="M0 0 C0.33 0.66 0.66 1.32 1 2 C-4.96583144 10.81548975 -4.96583144 10.81548975 -10 12 C-8.625 10 -8.625 10 -7 8 C-6.34 8 -5.68 8 -5 8 C-5 6.68 -5 5.36 -5 4 C-4.01 4 -3.02 4 -2 4 C-2 3.01 -2 2.02 -2 1 C-1.34 0.67 -0.68 0.34 0 0 Z " fill="#0E1E53" transform="translate(500,159)"/>
<path d="M0 0 C1.31534494 3.65857532 0.65468309 6.08026481 -0.4375 9.75 C-0.86869141 11.22726563 -0.86869141 11.22726563 -1.30859375 12.734375 C-1.53675781 13.48203125 -1.76492188 14.2296875 -2 15 C-2.33 15 -2.66 15 -3 15 C-3.17922662 9.8024279 -3.02641345 5.88723244 -1 1 C-0.67 0.67 -0.34 0.34 0 0 Z " fill="#0D2053" transform="translate(414,138)"/>
<path d="M0 0 C1.4552777 2.9105554 0.63516661 4.95849052 0.0625 8.125 C-0.13214844 9.22070312 -0.32679688 10.31640625 -0.52734375 11.4453125 C-0.68332031 12.28835937 -0.83929688 13.13140625 -1 14 C-1.99 13.34 -2.98 12.68 -4 12 C-3.71640113 10.5608866 -3.42278601 9.12374482 -3.125 7.6875 C-2.96257812 6.88699219 -2.80015625 6.08648437 -2.6328125 5.26171875 C-2 3 -2 3 0 0 Z " fill="#101F53" transform="translate(437,100)"/>
<path d="M0 0 C2 1 2 1 3.125 3.5 C4.1889199 7.7556796 4.17434209 11.64144777 4 16 C2.60025314 13.36518239 1.58775959 10.89629292 0.875 8 C0.70742188 7.34 0.53984375 6.68 0.3671875 6 C0 4 0 4 0 0 Z " fill="#0F2051" transform="translate(373,121)"/>
<path d="M0 0 C5.26170694 1.41167747 8.72171358 3.74850232 13 7 C12.67 7.99 12.34 8.98 12 10 C11.55269531 9.59007813 11.10539062 9.18015625 10.64453125 8.7578125 C7.26255515 5.74359926 4.420332 3.33949455 0 2 C0 1.34 0 0.68 0 0 Z " fill="#101E51" transform="translate(482,90)"/>
<path d="M0 0 C0.99 0.495 0.99 0.495 2 1 C3.47180796 5.82425944 4.25376143 9.92477148 4 15 C2.25674553 12.3851183 1.58412043 10.9946567 0.875 8.0625 C0.70742188 7.39347656 0.53984375 6.72445312 0.3671875 6.03515625 C0 4 0 4 0 0 Z " fill="#0E2151" transform="translate(319,100)"/>
<path d="M0 0 C2.66666667 0.66666667 5.33333333 1.33333333 8 2 C8.33 3.98 8.66 5.96 9 8 C7.68388323 7.04663979 6.37221039 6.08714226 5.0625 5.125 C4.33160156 4.59132813 3.60070312 4.05765625 2.84765625 3.5078125 C1 2 1 2 0 0 Z " fill="#0C1C52" transform="translate(279,105)"/>
<path d="M0 0 C0.99 0.495 0.99 0.495 2 1 C2.6328125 3.06640625 2.6328125 3.06640625 3.125 5.5625 C3.29257812 6.38878906 3.46015625 7.21507812 3.6328125 8.06640625 C3.75398438 8.70449219 3.87515625 9.34257812 4 10 C3.01 10.495 3.01 10.495 2 11 C2 10.01 2 9.02 2 8 C1.34 8 0.68 8 0 8 C0 5.36 0 2.72 0 0 Z " fill="#11205A" transform="translate(344,132)"/>
<path d="M0 0 C0 0.66 0 1.32 0 2 C-0.99 2 -1.98 2 -3 2 C-3.103125 2.78375 -3.20625 3.5675 -3.3125 4.375 C-4 7 -4 7 -7 9 C-4.83333333 0 -4.83333333 0 0 0 Z " fill="#0F1D4C" transform="translate(55,84)"/>
<path d="M0 0 C0.99 0 1.98 0 3 0 C7 4.34285714 7 4.34285714 7 7 C4.13302508 5.71480435 2.02392288 4.42870746 0 2 C0 1.34 0 0.68 0 0 Z " fill="#091B4C" transform="translate(238,162)"/>
<path d="M0 0 C0.66 0.66 1.32 1.32 2 2 C1.72317437 6.24465971 0.81645906 8.81617671 -2 12 C-1 3.42857143 -1 3.42857143 0 0 Z " fill="#112156" transform="translate(360,98)"/>
<path d="M0 0 C-3.20336822 2.83374881 -5.78087253 3.5205537 -10 4 C-7.75282684 -0.49434631 -4.47478037 -0.19887913 0 0 Z " fill="#112154" transform="translate(490,171)"/>
<path d="M0 0 C3.3125 -0.25 3.3125 -0.25 7 0 C8.9375 2 8.9375 2 10 4 C5.78087253 3.5205537 3.20336822 2.83374881 0 0 Z " fill="#122054" transform="translate(246,170)"/>
<path d="M0 0 C0.33 0 0.66 0 1 0 C1.33 2.31 1.66 4.62 2 7 C1.34 7 0.68 7 0 7 C-0.33 7.99 -0.66 8.98 -1 10 C-2.46726798 6.18510326 -1.43336419 3.70988378 0 0 Z " fill="#102258" transform="translate(398,135)"/>
<path d="M0 0 C1.32 0.33 2.64 0.66 4 1 C3.34 4.3 2.68 7.6 2 11 C1.34 11 0.68 11 0 11 C0 7.37 0 3.74 0 0 Z " fill="#0F1D52" transform="translate(561,109)"/>
<path d="M0 0 C1.88391785 3.26545761 2.49287967 6.28111761 3 10 C1.68 9.34 0.36 8.68 -1 8 C-0.67 5.36 -0.34 2.72 0 0 Z " fill="#112356" transform="translate(389,122)"/>
<path d="M0 0 C1.98 0.99 1.98 0.99 4 2 C4 5.3 4 8.6 4 12 C3.67 12 3.34 12 3 12 C2.01 8.04 1.02 4.08 0 0 Z " fill="#0F1F53" transform="translate(288,113)"/>
<path d="M0 0 C0.66 0.33 1.32 0.66 2 1 C1.01 2.485 1.01 2.485 0 4 C-4.455 3.01 -4.455 3.01 -9 2 C-9 1.67 -9 1.34 -9 1 C-7.88625 1.020625 -6.7725 1.04125 -5.625 1.0625 C-2.16784079 1.26380718 -2.16784079 1.26380718 0 0 Z " fill="#0B1E52" transform="translate(477,101)"/>
<path d="M0 0 C1.98 1.65 3.96 3.3 6 5 C5.67 5.66 5.34 6.32 5 7 C3.68 6.67 2.36 6.34 1 6 C0.67 4.02 0.34 2.04 0 0 Z " fill="#101F56" transform="translate(296,96)"/>
<path d="M0 0 C1.38111722 2.2747813 2.05694702 3.50171361 1.75 6.1875 C1 8 1 8 -1 9 C-1.09765625 2.84765625 -1.09765625 2.84765625 -1 1 C-0.67 0.67 -0.34 0.34 0 0 Z " fill="#0E2054" transform="translate(381,90)"/>
<path d="M0 0 C3.1875 0.875 3.1875 0.875 6 2 C6 2.66 6 3.32 6 4 C1.545 3.01 1.545 3.01 -3 2 C-2.01 1.34 -1.02 0.68 0 0 Z " fill="#102054" transform="translate(67,181)"/>
<path d="M0 0 C-0.66 1.32 -1.32 2.64 -2 4 C-3.32 2.68 -4.64 1.36 -6 0 C-3.50907189 -1.24546405 -2.58919267 -0.7767578 0 0 Z " fill="#0E1F4E" transform="translate(182,136)"/>
<path d="M0 0 C3.68754757 0.49831724 5.60490662 1.10067643 8 4 C5.69 3.67 3.38 3.34 1 3 C0.67 2.01 0.34 1.02 0 0 Z " fill="#13225A" transform="translate(567,91)"/>
</svg>
